<svg id="Capa_1" data-name="Capa 1" xmlns="http://www.w3.org/2000/svg" xmlns:xlink="http://www.w3.org/1999/xlink" viewBox="0 0 79.76 69.01"><defs><style>.cls-1{fill:url(#Degradado_sin_nombre_10);}.cls-2{fill:url(#Degradado_sin_nombre_10-2);}.cls-3{fill:url(#Degradado_sin_nombre_10-3);}.cls-4{fill:url(#Degradado_sin_nombre_10-4);}.cls-5{fill:url(#Degradado_sin_nombre_10-5);}.cls-6{fill:url(#Degradado_sin_nombre_10-6);}</style><linearGradient id="Degradado_sin_nombre_10" y1="7.61" x2="15.21" y2="7.61" gradientUnits="userSpaceOnUse"><stop offset="0" stop-color="#807be7"/><stop offset="0.65" stop-color="#b079ec"/><stop offset="1" stop-color="#c478ee"/></linearGradient><linearGradient id="Degradado_sin_nombre_10-2" y1="34.51" x2="15.21" y2="34.51" xlink:href="#Degradado_sin_nombre_10"/><linearGradient id="Degradado_sin_nombre_10-3" y1="61.39" x2="15.21" y2="61.39" xlink:href="#Degradado_sin_nombre_10"/><linearGradient id="Degradado_sin_nombre_10-4" x1="25.92" y1="7.61" x2="79.76" y2="7.61" xlink:href="#Degradado_sin_nombre_10"/><linearGradient id="Degradado_sin_nombre_10-5" x1="25.92" y1="34.51" x2="79.76" y2="34.51" xlink:href="#Degradado_sin_nombre_10"/><linearGradient id="Degradado_sin_nombre_10-6" x1="25.92" y1="61.39" x2="79.76" y2="61.39" xlink:href="#Degradado_sin_nombre_10"/></defs><title>Iconos</title><path class="cls-1" d="M7.61,15.23A7.62,7.62,0,1,0,0,7.61,7.61,7.61,0,0,0,7.61,15.23Zm0-11.69A4.07,4.07,0,1,1,3.54,7.61,4.07,4.07,0,0,1,7.61,3.54Z"/><path class="cls-2" d="M7.61,42.13A7.62,7.62,0,1,0,0,34.5,7.62,7.62,0,0,0,7.61,42.13Zm0-11.7A4.07,4.07,0,1,1,3.54,34.5,4.08,4.08,0,0,1,7.61,30.43Z"/><path class="cls-3" d="M7.61,69A7.62,7.62,0,1,0,0,61.38,7.61,7.61,0,0,0,7.61,69Zm0-11.7a4.08,4.08,0,1,1-4.07,4.07A4.08,4.08,0,0,1,7.61,57.31Z"/><path class="cls-4" d="M28,9.64H77.73a2,2,0,1,0,0-4.06H28a2,2,0,1,0,0,4.06Z"/><path class="cls-5" d="M28,36.54H77.73a2,2,0,0,0,0-4.06H28a2,2,0,1,0,0,4.06Z"/><path class="cls-6" d="M28,63.42H77.73a2,2,0,0,0,0-4.06H28a2,2,0,1,0,0,4.06Z"/></svg>