<svg id="Capa_1" data-name="Capa 1" xmlns="http://www.w3.org/2000/svg" xmlns:xlink="http://www.w3.org/1999/xlink" viewBox="0 0 93.64 93.64"><defs><style>.cls-1{opacity:0.85;}.cls-2{fill:url(#Degradado_sin_nombre_10);}.cls-3{fill:url(#Degradado_sin_nombre_10-2);}</style><linearGradient id="Degradado_sin_nombre_10" y1="62.43" x2="93.64" y2="62.43" gradientUnits="userSpaceOnUse"><stop offset="0" stop-color="#807be7"/><stop offset="0.65" stop-color="#b079ec"/><stop offset="1" stop-color="#c478ee"/></linearGradient><linearGradient id="Degradado_sin_nombre_10-2" x1="3.9" y1="25.36" x2="89.74" y2="25.36" xlink:href="#Degradado_sin_nombre_10"/></defs><title>Iconos</title><g class="cls-1"><path class="cls-2" d="M91.69,89.74h-2V33.16a2,2,0,0,0-1.95-1.95H76.08a2,2,0,0,0-2,1.95V89.74h-7.8V56.58a2,2,0,0,0-2-2H52.67a2,2,0,0,0-2,2V89.74h-7.8v-41a2,2,0,0,0-2-2H29.26a2,2,0,0,0-2,2v41h-7.8V68.28a2,2,0,0,0-2-2H5.85a2,2,0,0,0-1.95,2V89.74H2a2,2,0,1,0,0,3.9H91.69a2,2,0,0,0,0-3.9ZM78,35.12h7.81V89.74H78ZM54.62,58.53h7.81V89.74H54.62ZM31.21,50.72H39v39H31.21Zm-15.6,39H7.8V70.23h7.81V89.74Z"/><path class="cls-3" d="M11.71,50.72a7.8,7.8,0,0,0,6.82-11.58l11.9-9.49a7.8,7.8,0,0,0,11.41-2.29l9,2.56a7.8,7.8,0,1,0,14.42-2.67L78,14.52a7.86,7.86,0,1,0-2.75-2.76L62.49,24.49a7.8,7.8,0,0,0-10,1.83L42.91,23.6a1.15,1.15,0,0,0,0-.19,7.81,7.81,0,0,0-15.61,0A7.9,7.9,0,0,0,28,26.6L15.83,36.3a7.8,7.8,0,1,0-4.12,14.42ZM81.94,3.9a3.91,3.91,0,1,1-2.73,6.69l0,0,0,0A3.9,3.9,0,0,1,81.94,3.9ZM58.53,27.31a3.91,3.91,0,1,1-3.91,3.9A3.91,3.91,0,0,1,58.53,27.31Zm-23.41-7.8a3.9,3.9,0,1,1-3,6.39l0-.06,0,0a3.86,3.86,0,0,1-.84-2.4A3.91,3.91,0,0,1,35.12,19.51ZM11.71,39a3.9,3.9,0,0,1,2.74,1.13l0,0A3.9,3.9,0,1,1,11.71,39Z"/></g></svg>