<svg id="Capa_1" data-name="Capa 1" xmlns="http://www.w3.org/2000/svg" xmlns:xlink="http://www.w3.org/1999/xlink" viewBox="0 0 92.36 89.28"><defs><style>.cls-1{fill:url(#Degradado_sin_nombre_10);}.cls-2{fill:url(#Degradado_sin_nombre_10-2);}.cls-3{fill:url(#Degradado_sin_nombre_10-3);}.cls-4{fill:url(#Degradado_sin_nombre_10-4);}.cls-5{fill:url(#Degradado_sin_nombre_10-5);}.cls-6{fill:url(#Degradado_sin_nombre_10-6);}.cls-7{fill:url(#Degradado_sin_nombre_10-7);}.cls-8{fill:url(#Degradado_sin_nombre_10-8);}.cls-9{fill:url(#Degradado_sin_nombre_10-9);}.cls-10{fill:url(#Degradado_sin_nombre_10-10);}.cls-11{fill:url(#Degradado_sin_nombre_10-11);}.cls-12{fill:url(#Degradado_sin_nombre_10-12);}.cls-13{fill:url(#Degradado_sin_nombre_10-13);}.cls-14{fill:url(#Degradado_sin_nombre_10-14);}.cls-15{fill:url(#Degradado_sin_nombre_10-15);}.cls-16{fill:url(#Degradado_sin_nombre_10-16);}.cls-17{fill:url(#Degradado_sin_nombre_10-17);}.cls-18{fill:url(#Degradado_sin_nombre_10-18);}.cls-19{fill:url(#Degradado_sin_nombre_10-19);}.cls-20{fill:url(#Degradado_sin_nombre_10-20);}.cls-21{fill:url(#Degradado_sin_nombre_10-21);}.cls-22{fill:url(#Degradado_sin_nombre_10-22);}.cls-23{fill:url(#Degradado_sin_nombre_10-23);}</style><linearGradient id="Degradado_sin_nombre_10" x1="9.24" y1="16.16" x2="23.09" y2="16.16" gradientUnits="userSpaceOnUse"><stop offset="0" stop-color="#807be7"/><stop offset="0.65" stop-color="#b079ec"/><stop offset="1" stop-color="#c478ee"/></linearGradient><linearGradient id="Degradado_sin_nombre_10-2" x1="75.43" y1="13.85" x2="78.51" y2="13.85" xlink:href="#Degradado_sin_nombre_10"/><linearGradient id="Degradado_sin_nombre_10-3" x1="69.27" y1="13.85" x2="72.35" y2="13.85" xlink:href="#Degradado_sin_nombre_10"/><linearGradient id="Degradado_sin_nombre_10-4" x1="78.51" y1="18.47" x2="81.59" y2="18.47" xlink:href="#Degradado_sin_nombre_10"/><linearGradient id="Degradado_sin_nombre_10-5" x1="72.35" y1="18.47" x2="75.43" y2="18.47" xlink:href="#Degradado_sin_nombre_10"/><linearGradient id="Degradado_sin_nombre_10-6" x1="63.11" y1="13.85" x2="66.19" y2="13.85" xlink:href="#Degradado_sin_nombre_10"/><linearGradient id="Degradado_sin_nombre_10-7" x1="66.19" y1="18.47" x2="69.27" y2="18.47" xlink:href="#Degradado_sin_nombre_10"/><linearGradient id="Degradado_sin_nombre_10-8" x1="56.96" y1="13.85" x2="60.04" y2="13.85" xlink:href="#Degradado_sin_nombre_10"/><linearGradient id="Degradado_sin_nombre_10-9" x1="60.04" y1="18.47" x2="63.11" y2="18.47" xlink:href="#Degradado_sin_nombre_10"/><linearGradient id="Degradado_sin_nombre_10-10" x1="50.8" y1="13.85" x2="53.88" y2="13.85" xlink:href="#Degradado_sin_nombre_10"/><linearGradient id="Degradado_sin_nombre_10-11" x1="53.88" y1="18.47" x2="56.96" y2="18.47" xlink:href="#Degradado_sin_nombre_10"/><linearGradient id="Degradado_sin_nombre_10-12" x1="0" y1="44.64" x2="92.36" y2="44.64" xlink:href="#Degradado_sin_nombre_10"/><linearGradient id="Degradado_sin_nombre_10-13" x1="9.24" y1="45.41" x2="23.09" y2="45.41" xlink:href="#Degradado_sin_nombre_10"/><linearGradient id="Degradado_sin_nombre_10-14" x1="75.43" y1="43.1" x2="78.51" y2="43.1" xlink:href="#Degradado_sin_nombre_10"/><linearGradient id="Degradado_sin_nombre_10-15" x1="69.27" y1="43.1" x2="72.35" y2="43.1" xlink:href="#Degradado_sin_nombre_10"/><linearGradient id="Degradado_sin_nombre_10-16" x1="78.51" y1="47.72" x2="81.59" y2="47.72" xlink:href="#Degradado_sin_nombre_10"/><linearGradient id="Degradado_sin_nombre_10-17" x1="72.35" y1="47.72" x2="75.43" y2="47.72" xlink:href="#Degradado_sin_nombre_10"/><linearGradient id="Degradado_sin_nombre_10-18" x1="63.11" y1="43.1" x2="66.19" y2="43.1" xlink:href="#Degradado_sin_nombre_10"/><linearGradient id="Degradado_sin_nombre_10-19" x1="66.19" y1="47.72" x2="69.27" y2="47.72" xlink:href="#Degradado_sin_nombre_10"/><linearGradient id="Degradado_sin_nombre_10-20" x1="56.96" y1="43.1" x2="60.04" y2="43.1" xlink:href="#Degradado_sin_nombre_10"/><linearGradient id="Degradado_sin_nombre_10-21" x1="60.04" y1="47.72" x2="63.11" y2="47.72" xlink:href="#Degradado_sin_nombre_10"/><linearGradient id="Degradado_sin_nombre_10-22" x1="50.8" y1="43.1" x2="53.88" y2="43.1" xlink:href="#Degradado_sin_nombre_10"/><linearGradient id="Degradado_sin_nombre_10-23" x1="53.88" y1="47.72" x2="56.96" y2="47.72" xlink:href="#Degradado_sin_nombre_10"/></defs><title>Iconos</title><path class="cls-1" d="M16.16,9.24a6.93,6.93,0,1,0,6.93,6.92A6.92,6.92,0,0,0,16.16,9.24Zm0,10.77A3.85,3.85,0,1,1,20,16.16,3.85,3.85,0,0,1,16.16,20Z"/><circle class="cls-2" cx="76.97" cy="13.85" r="1.54"/><circle class="cls-3" cx="70.81" cy="13.85" r="1.54"/><circle class="cls-4" cx="80.05" cy="18.47" r="1.54"/><circle class="cls-5" cx="73.89" cy="18.47" r="1.54"/><circle class="cls-6" cx="64.65" cy="13.85" r="1.54"/><circle class="cls-7" cx="67.73" cy="18.47" r="1.54"/><circle class="cls-8" cx="58.5" cy="13.85" r="1.54"/><circle class="cls-9" cx="61.57" cy="18.47" r="1.54"/><circle class="cls-10" cx="52.34" cy="13.85" r="1.54"/><circle class="cls-11" cx="55.42" cy="18.47" r="1.54"/><path class="cls-12" d="M92.36,25.23V7.09A7.1,7.1,0,0,0,85.27,0H7.09A7.1,7.1,0,0,0,0,7.09V25.23a7.05,7.05,0,0,0,2.74,5.56A7,7,0,0,0,0,36.34V54.48a7.1,7.1,0,0,0,7.09,7.09H44.64V74.05a7.71,7.71,0,0,0-6,6H1.54a1.54,1.54,0,0,0,0,3.08h37.1a7.7,7.7,0,0,0,15.08,0h37.1a1.54,1.54,0,1,0,0-3.08H53.72a7.71,7.71,0,0,0-6-6V61.57H85.27a7.1,7.1,0,0,0,7.09-7.09V36.34a7.05,7.05,0,0,0-2.73-5.55A7.07,7.07,0,0,0,92.36,25.23ZM50.8,81.59A4.62,4.62,0,1,1,46.18,77,4.62,4.62,0,0,1,50.8,81.59ZM89.28,36.34V54.48a4,4,0,0,1-4,4H7.09a4,4,0,0,1-4-4V36.34a4,4,0,0,1,4-4H85.27A4,4,0,0,1,89.28,36.34ZM7.09,29.25a4,4,0,0,1-4-4V7.09a4,4,0,0,1,4-4H85.27a4,4,0,0,1,4,4V25.23a4,4,0,0,1-4,4Z"/><path class="cls-13" d="M16.16,52.34a6.93,6.93,0,1,0-6.92-6.93A6.94,6.94,0,0,0,16.16,52.34Zm0-10.78a3.85,3.85,0,1,1-3.85,3.85A3.86,3.86,0,0,1,16.16,41.56Z"/><circle class="cls-14" cx="76.97" cy="43.1" r="1.54"/><circle class="cls-15" cx="70.81" cy="43.1" r="1.54"/><circle class="cls-16" cx="80.05" cy="47.72" r="1.54"/><circle class="cls-17" cx="73.89" cy="47.72" r="1.54"/><circle class="cls-18" cx="64.65" cy="43.1" r="1.54"/><circle class="cls-19" cx="67.73" cy="47.72" r="1.54"/><circle class="cls-20" cx="58.5" cy="43.1" r="1.54"/><circle class="cls-21" cx="61.57" cy="47.72" r="1.54"/><circle class="cls-22" cx="52.34" cy="43.1" r="1.54"/><circle class="cls-23" cx="55.42" cy="47.72" r="1.54"/></svg>